<svg width="88" height="21" viewBox="0 0 88 21" fill="none" xmlns="http://www.w3.org/2000/svg">
<path d="M12.8931 13.2747C12.8931 15.5164 12.4296 17.2399 11.5025 18.4451C10.5755 19.6502 9.26919 20.2528 7.58365 20.2528C6.19307 20.2528 5.07218 19.7008 4.22098 18.5968L4.044 20H0.226235V0.5825H4.48645V7.42161C5.27866 6.51984 6.30263 6.06896 7.55836 6.06896C9.26077 6.06896 10.5755 6.67997 11.5025 7.90199C12.4296 9.12401 12.8931 10.8433 12.8931 13.0598V13.2747ZM8.62026 13.0092C8.62026 11.6945 8.44328 10.759 8.08931 10.2028C7.74377 9.6381 7.20861 9.35577 6.48383 9.35577C5.52307 9.35577 4.85728 9.72238 4.48645 10.4556V15.8915C4.84885 16.6163 5.52307 16.9787 6.50911 16.9787C7.51201 16.9787 8.14831 16.4898 8.41799 15.5122C8.55284 15.0319 8.62026 14.1975 8.62026 13.0092ZM19.2771 20H15.0043V0.5825H19.2771V20ZM28.5308 20.2528C26.4323 20.2528 24.7341 19.6292 23.4362 18.3819C22.1383 17.1261 21.4894 15.4954 21.4894 13.4896V13.1356C21.4894 11.7366 21.7465 10.5019 22.2605 9.43162C22.7831 8.3613 23.5416 7.53538 24.536 6.95387C25.5305 6.36393 26.7104 6.06896 28.0757 6.06896C29.9972 6.06896 31.5142 6.66732 32.6267 7.86406C33.7391 9.05237 34.2954 10.7126 34.2954 12.8449V14.5009H25.8255C25.9772 15.2678 26.3101 15.8704 26.8242 16.3087C27.3383 16.7469 28.004 16.966 28.8215 16.966C30.17 16.966 31.2234 16.4941 31.9819 15.5502L33.9287 17.8509C33.3978 18.5841 32.6435 19.1699 31.6659 19.6081C30.6967 20.0379 29.6517 20.2528 28.5308 20.2528ZM28.0504 9.35577C26.8031 9.35577 26.0615 10.1817 25.8255 11.8335H30.1236V11.5048C30.1405 10.8222 29.9677 10.2955 29.6053 9.92464C29.2429 9.5454 28.7246 9.35577 28.0504 9.35577ZM39.9335 6.32179L40.0726 7.92727C41.0165 6.68839 42.3186 6.06896 43.9788 6.06896C45.4031 6.06896 46.465 6.49456 47.1645 7.34576C47.8724 8.19696 48.239 9.47797 48.2643 11.1888V20H43.9915V11.3658C43.9915 10.6747 43.8524 10.169 43.5743 9.84879C43.2962 9.52011 42.7905 9.35577 42.0573 9.35577C41.2229 9.35577 40.6035 9.68445 40.199 10.3418V20H35.9388V6.32179H39.9335ZM50.0974 13.0598C50.0974 10.8938 50.5651 9.18722 51.5006 7.93991C52.4361 6.69261 53.7423 6.06896 55.4195 6.06896C56.6415 6.06896 57.6697 6.54934 58.504 7.5101V0.5825H62.7769V20H58.9465L58.7316 18.5336C57.8551 19.6797 56.7426 20.2528 55.3942 20.2528C53.7676 20.2528 52.4782 19.6292 51.5259 18.3819C50.5735 17.1346 50.0974 15.3605 50.0974 13.0598ZM54.3576 13.3252C54.3576 15.7524 55.0655 16.966 56.4814 16.966C57.4253 16.966 58.0995 16.5699 58.504 15.7777V10.5694C58.1163 9.7603 57.4506 9.35577 56.5066 9.35577C55.1919 9.35577 54.4798 10.4177 54.3702 12.5415L54.3576 13.3252ZM71.8156 20.2528C69.7171 20.2528 68.0189 19.6292 66.7211 18.3819C65.4232 17.1261 64.7743 15.4954 64.7743 13.4896V13.1356C64.7743 11.7366 65.0313 10.5019 65.5454 9.43162C66.0679 8.3613 66.8264 7.53538 67.8209 6.95387C68.8153 6.36393 69.9952 6.06896 71.3605 6.06896C73.282 6.06896 74.799 6.66732 75.9115 7.86406C77.024 9.05237 77.5802 10.7126 77.5802 12.8449V14.5009H69.1103C69.262 15.2678 69.5949 15.8704 70.109 16.3087C70.6231 16.7469 71.2889 16.966 72.1064 16.966C73.4548 16.966 74.5083 16.4941 75.2668 15.5502L77.2136 17.8509C76.6826 18.5841 75.9284 19.1699 74.9507 19.6081C73.9816 20.0379 72.9365 20.2528 71.8156 20.2528ZM71.3352 9.35577C70.0879 9.35577 69.3463 10.1817 69.1103 11.8335H73.4085V11.5048C73.4253 10.8222 73.2526 10.2955 72.8902 9.92464C72.5278 9.5454 72.0095 9.35577 71.3352 9.35577ZM87.5797 10.1775L86.1765 10.0763C84.8365 10.0763 83.9768 10.4977 83.5976 11.3405V20H79.3374V6.32179H83.3321L83.4712 8.07897C84.1875 6.73896 85.1862 6.06896 86.4672 6.06896C86.9223 6.06896 87.3184 6.11952 87.6556 6.22065L87.5797 10.1775Z" fill="#0147B7" fill-opacity="0.21"/>
</svg>
