<svg width="67" height="26" viewBox="0 0 67 26" fill="none" xmlns="http://www.w3.org/2000/svg">
<path d="M2.187 20V9.27992H0.202266V6.32179H2.187V5.86669C2.21228 4.0463 2.81065 2.65151 3.9821 1.68232C5.09457 0.772124 6.64948 0.317027 8.64686 0.317027C9.90259 0.317027 11.3859 0.561431 13.0967 1.05024L12.5152 4.41291L11.8073 4.22328C10.8886 3.97888 9.91944 3.85668 8.89969 3.85668C7.27313 3.85668 6.45986 4.59832 6.45986 6.0816V6.32179H9.13988V9.27992H6.45986V20H2.187ZM15.0561 20H10.7706V6.32179H15.0561V20ZM17.1547 13.0598C17.1547 11.6776 17.3822 10.4556 17.8373 9.3937C18.2924 8.3318 18.9455 7.51431 19.7967 6.94123C20.6479 6.35971 21.6382 6.06896 22.7675 6.06896C24.1918 6.06896 25.3043 6.54934 26.1049 7.5101L26.2566 6.32179H30.1249V19.4817C30.1249 20.6869 29.8426 21.7319 29.2779 22.6168C28.7217 23.5102 27.9127 24.1928 26.8508 24.6648C25.7889 25.1451 24.5584 25.3853 23.1594 25.3853C22.1565 25.3853 21.1831 25.1957 20.2392 24.8165C19.3037 24.4372 18.5874 23.9442 18.0901 23.3374L19.8726 20.8343C20.6648 21.7698 21.7098 22.2376 23.0077 22.2376C24.8955 22.2376 25.8394 21.2684 25.8394 19.33V18.9002C25.0219 19.8019 23.9895 20.2528 22.7422 20.2528C21.0735 20.2528 19.7251 19.6165 18.6969 18.344C17.6687 17.0629 17.1547 15.3521 17.1547 13.2115V13.0598ZM21.4275 13.3252C21.4275 14.4461 21.6382 15.3352 22.0596 15.9926C22.481 16.6415 23.0709 16.966 23.8294 16.966C24.748 16.966 25.418 16.6584 25.8394 16.0432V10.2913C25.4265 9.6676 24.7649 9.35577 23.8547 9.35577C23.0962 9.35577 22.502 9.69709 22.0722 10.3797C21.6424 11.054 21.4275 12.0358 21.4275 13.3252ZM36.5722 6.32179L36.7112 7.92727C37.6804 6.68839 38.9825 6.06896 40.6175 6.06896C42.3451 6.06896 43.5124 6.75582 44.1192 8.12954C45.0462 6.75582 46.3862 6.06896 48.1392 6.06896C50.9119 6.06896 52.3362 7.74607 52.4121 11.1003V20H48.1392V11.3658C48.1392 10.6663 48.0212 10.1564 47.7853 9.83615C47.5493 9.5159 47.1195 9.35577 46.4958 9.35577C45.653 9.35577 45.0252 9.73081 44.6122 10.4809L44.6249 10.6579V20H40.352V11.3911C40.352 10.6747 40.2382 10.1564 40.0107 9.83615C39.7831 9.5159 39.3491 9.35577 38.7086 9.35577C37.8911 9.35577 37.2674 9.73081 36.8376 10.4809V20H32.5774V6.32179H36.5722ZM62.5506 20C62.3989 19.7219 62.2641 19.3131 62.1461 18.7738C61.3623 19.7598 60.2667 20.2528 58.8593 20.2528C57.5699 20.2528 56.4742 19.8652 55.5725 19.0898C54.6707 18.306 54.2198 17.3242 54.2198 16.1443C54.2198 14.661 54.7676 13.5401 55.8632 12.7816C56.9588 12.0231 58.5517 11.6439 60.6418 11.6439H61.9565V10.9233C61.9565 9.6676 61.4129 9.03973 60.3257 9.03973C59.3144 9.03973 58.8087 9.53697 58.8087 10.5314H54.5485C54.5485 9.20829 55.109 8.13375 56.2298 7.30783C57.3592 6.48191 58.7961 6.06896 60.5406 6.06896C62.2852 6.06896 63.6631 6.49456 64.6744 7.34576C65.6858 8.19696 66.2041 9.3642 66.2293 10.8475V16.9028C66.2462 18.1585 66.44 19.1193 66.8109 19.7851V20H62.5506ZM59.8833 17.2188C60.4142 17.2188 60.8525 17.1051 61.198 16.8775C61.552 16.65 61.8048 16.3929 61.9565 16.1064V13.9194H60.7176C59.2343 13.9194 58.4927 14.5852 58.4927 15.9168C58.4927 16.3044 58.6233 16.6205 58.8846 16.8649C59.1458 17.1009 59.4787 17.2188 59.8833 17.2188Z" fill="#0147B7" fill-opacity="0.21"/>
</svg>
