<svg width="74" height="98" viewBox="0 0 74 98" fill="none" xmlns="http://www.w3.org/2000/svg">
<path d="M8.45026 0H12.846V4.34295H16.868V0H21.2638V13.1467H16.868V8.74685H12.846V13.1467H8.45432V0H8.45026Z" fill="#0147B7" fill-opacity="0.5"/>
<path d="M27.0409 4.3592H23.1732V0H35.3083V4.3592H31.4366V13.1467H27.0409V4.3592Z" fill="#0147B7" fill-opacity="0.5"/>
<path d="M37.234 0H41.8166L44.6361 4.61921L47.4515 0H52.0341V13.1467H47.6587V6.63021L44.6361 11.3063H44.5589L41.5322 6.63428V13.1467H37.234V0V0Z" fill="#0147B7" fill-opacity="0.5"/>
<path d="M54.2199 0H58.6197V8.80372H64.7949V13.1507H54.2199V0V0Z" fill="#0147B7" fill-opacity="0.5"/>
<path fill-rule="evenodd" clip-rule="evenodd" d="M8.31214 89.6705L0 19.1636H73.1274L64.8112 89.6624L36.5231 97.5033L8.31214 89.6705ZM25.1192 51.0755L24.3311 42.219H57.4212L58.1931 33.5737H14.8855L17.2174 59.7249H47.1875L46.184 70.9377L36.5393 73.546H36.5312L26.9027 70.9459L26.2852 64.0516H17.5993L18.81 77.6289L36.5231 82.5447L54.2646 77.6289L56.4259 53.3994L56.6371 51.0796H25.1192V51.0755Z" fill="#0147B7" fill-opacity="0.5"/>
</svg>
