<svg width="116" height="146" viewBox="0 0 116 146" fill="none" xmlns="http://www.w3.org/2000/svg">
<path d="M28.9597 0H45.5429V6.54714H35.894V13.0943H45.5429V19.6414H28.9597V0Z" fill="#0147B7"/>
<path d="M48.8557 0H65.4453V5.69687H55.7964V6.8326H65.4453V19.9269H48.8557V13.9506H58.5046V12.8088H48.8557V0Z" fill="#0147B7"/>
<path d="M68.7646 0H85.3414V5.69687H75.6925V6.8326H85.3414V19.9269H68.7646V13.9506H78.4135V12.8088H68.7646V0Z" fill="#0147B7"/>
<path fill-rule="evenodd" clip-rule="evenodd" d="M57.8356 145.762L13.1675 134.053L0 28.6484H115.787L102.626 134.04L57.8356 145.762ZM26.0328 76.3612L27.2614 89.2854H74.7147L73.1259 106.048L57.8549 109.947H57.842L42.5967 106.06L41.619 95.7536H27.8725L29.7894 116.051L57.8356 123.4L85.9268 116.051L89.3489 79.8291L89.6834 76.3612L92.1535 50.1908H23.5691L24.817 63.1211H77.1527L75.9048 76.3612H26.0328V76.3612Z" fill="#0147B7"/>
</svg>
