<svg width="69" height="26" viewBox="0 0 69 26" fill="none" xmlns="http://www.w3.org/2000/svg">
<path d="M6.21835 1.59383L10.3269 14.3998L14.4228 1.59383H20.2632V20H15.8133V15.7019L16.2431 6.9033L11.7933 20H8.86045L4.39796 6.89066L4.82778 15.7019V20H0.390576V1.59383H6.21835ZM28.3664 14.0332L30.6419 6.32179H35.2055L29.6306 22.2881L29.3904 22.8696C28.5982 24.6395 27.1992 25.5244 25.1934 25.5244C24.6372 25.5244 24.0514 25.4401 23.4362 25.2715V22.2249H23.9924C24.5908 22.2249 25.0459 22.1364 25.3577 21.9594C25.678 21.7909 25.914 21.4833 26.0657 21.0366L26.407 20.1264L21.6537 6.32179H26.2047L28.3664 14.0332ZM43.4858 16.157C43.4858 15.7946 43.2962 15.5038 42.9169 15.2847C42.5377 15.0656 41.8171 14.838 40.7552 14.602C39.6933 14.3661 38.8168 14.0584 38.1258 13.6792C37.4347 13.2915 36.9079 12.8238 36.5456 12.276C36.1832 11.7282 36.002 11.1003 36.002 10.3924C36.002 9.13665 36.5203 8.10425 37.5569 7.29519C38.5935 6.4777 39.9504 6.06896 41.6275 6.06896C43.431 6.06896 44.8806 6.4777 45.9762 7.29519C47.0718 8.11268 47.6196 9.18722 47.6196 10.5188H43.3467C43.3467 9.42319 42.7694 8.87539 41.6148 8.87539C41.1682 8.87539 40.7931 9.00181 40.4897 9.25464C40.1863 9.49904 40.0346 9.80666 40.0346 10.1775C40.0346 10.5567 40.22 10.8643 40.5909 11.1003C40.9617 11.3363 41.5516 11.5301 42.3607 11.6818C43.1782 11.8335 43.8945 12.0147 44.5098 12.2254C46.5661 12.9333 47.5943 14.2017 47.5943 16.0305C47.5943 17.2778 47.0381 18.2934 45.9256 19.0772C44.8216 19.8609 43.3889 20.2528 41.6275 20.2528C40.456 20.2528 39.411 20.0421 38.4924 19.6208C37.5737 19.1994 36.8574 18.6263 36.3433 17.9015C35.8292 17.1767 35.5722 16.414 35.5722 15.6134H39.5543C39.5711 16.2454 39.7818 16.709 40.1863 17.0039C40.5909 17.2905 41.1092 17.4338 41.7413 17.4338C42.3228 17.4338 42.7568 17.3158 43.0433 17.0798C43.3383 16.8438 43.4858 16.5362 43.4858 16.157ZM49.0607 13.0218C49.0607 10.8475 49.5327 9.14508 50.4766 7.91463C51.4205 6.68418 52.7226 6.06896 54.3829 6.06896C55.7819 6.06896 56.9027 6.64204 57.7455 7.78821L58.0489 6.32179H61.7403V25.2589H57.4674V18.8623C56.6499 19.7893 55.6133 20.2528 54.3576 20.2528C52.7394 20.2528 51.45 19.6292 50.4892 18.3819C49.5369 17.1261 49.0607 15.3395 49.0607 13.0218ZM53.321 13.2873C53.321 15.7398 54.0289 16.966 55.4447 16.966C56.4224 16.966 57.0966 16.5952 57.4674 15.8536V10.4429C57.1134 9.71816 56.4476 9.35577 55.47 9.35577C54.1469 9.35577 53.4347 10.4135 53.3336 12.5288L53.321 13.2873ZM68.6552 20H64.3824V0.5825H68.6552V20Z" fill="#0147B7" fill-opacity="0.21"/>
</svg>
