<svg width="93" height="56" viewBox="0 0 93 56" fill="none" xmlns="http://www.w3.org/2000/svg">
<path d="M76.6355 16.2094C73.1523 15.0206 70.0777 12.883 67.7644 10.0419C65.2147 6.87641 61.9682 4.33074 58.2732 2.59964C54.5781 0.868553 50.5325 -0.00209335 46.4458 0.0543088C40.9483 -0.331501 35.5058 1.34876 31.2023 4.76048C26.8987 8.1722 24.0498 13.0651 23.2229 18.4646C24.8516 15.7641 27.3029 13.6451 30.2241 12.4128C33.1452 11.1805 36.3856 10.8983 39.4789 11.6068C42.9562 12.8302 46.0258 14.9802 48.35 17.8203C50.9137 20.9605 54.1663 23.4799 57.8606 25.1867C61.5548 26.8935 65.5933 27.7427 69.6686 27.6698C75.1661 28.0556 80.6085 26.3754 84.9121 22.9636C89.2157 19.5519 92.0646 14.6591 92.8915 9.25948C91.2924 11.9924 88.8488 14.1433 85.9217 15.3947C82.9946 16.6462 79.739 16.9318 76.6355 16.2094ZM16.256 39.1302C19.7392 40.319 22.8138 42.4566 25.1272 45.2977C27.6768 48.4632 30.9233 51.0089 34.6183 52.74C38.3134 54.4711 42.359 55.3417 46.4458 55.2853C51.9432 55.6711 57.3857 53.9909 61.6892 50.5791C65.9928 47.1674 68.8417 42.2746 69.6686 36.875C68.0399 39.5756 65.5886 41.6945 62.6674 42.9268C59.7463 44.1592 56.5059 44.4414 53.4126 43.7328C49.9353 42.5094 46.8657 40.3595 44.5415 37.5193C41.971 34.3869 38.717 31.8731 35.0243 30.167C31.3317 28.4609 27.2966 27.6071 23.2229 27.6698C17.7254 27.284 12.283 28.9643 7.97941 32.376C3.67585 35.7877 0.82693 40.6806 0 46.0801C1.59916 43.3473 4.04268 41.1963 6.96981 39.9449C9.89694 38.6935 13.1526 38.4079 16.256 39.1302Z" fill="#0147B7" fill-opacity="0.5"/>
</svg>
