<svg width="93" height="100" viewBox="0 0 93 100" fill="none" xmlns="http://www.w3.org/2000/svg">
<path d="M53.0112 0C50.8849 0 49.0706 0.8011 47.5675 2.4045C46.0646 4.0082 45.3151 5.9404 45.3151 8.1999C45.3151 10.3865 46.0643 12.2797 47.5675 13.883C49.0706 15.4867 50.885 16.2903 53.0112 16.2903C55.0643 16.2903 56.842 15.4867 58.3451 13.883C59.8483 12.2797 60.6004 10.3865 60.6004 8.1999C60.6004 5.9403 59.8484 4.0082 58.3451 2.4045C56.8423 0.8012 55.0643 0 53.0112 0ZM69.4996 15.6345C69.7192 16.8736 69.8294 18.5117 69.8294 20.5526V24.8148H64.4423V35.4189C65.9819 35.2003 67.2273 35.0943 68.1805 35.0943L69.8298 35.2006V35.4192H69.72V54.9882C69.72 61.111 70.4924 65.594 72.032 68.4368C74.0851 72.2264 77.7873 74.1199 83.1394 74.1199C86.952 74.1199 90.2146 73.3925 92.9276 71.934V61.0018C91.094 62.2412 89.0404 62.8596 86.7677 62.8596C83.5418 62.8596 81.9303 60.4176 81.9303 55.5342V35.2002H86.658C87.538 35.2002 88.4734 35.2367 89.4633 35.3093C90.4531 35.3823 91.1293 35.4184 91.4958 35.4184V24.8143H81.9307V20.3334C81.9307 18.5844 82.0409 17.019 82.2605 15.6339H69.5009L69.4996 15.6345ZM19.136 24.2685C14.1503 24.2685 9.86251 25.9098 6.26952 29.1894C2.53066 32.6877 0.659325 37.0594 0.659325 42.3071C0.659325 45.8054 1.68483 49.0855 3.73765 52.1462C5.57056 54.9883 7.66151 56.812 10.0077 57.6139V57.8325C7.66151 58.8519 6.48953 61.4045 6.48953 65.4857C6.48953 68.6201 7.73494 70.9498 10.2277 72.4802V72.6988C3.4095 74.958 0 79.1483 0 85.2701C0 90.5911 2.27343 94.4923 6.8197 96.9701C10.4117 98.9381 14.9936 99.921 20.5656 99.921C34.1294 99.921 40.9116 94.2723 40.9116 82.9751C40.9116 75.9058 35.6685 71.5695 25.1835 69.9665C22.7643 69.6022 20.9328 68.7288 19.6863 67.3437C18.7331 66.3966 18.2569 65.4466 18.2569 64.4991C18.2569 61.8026 19.7226 60.2372 22.6545 59.7996C27.1269 59.1444 30.7755 57.0851 33.5986 53.6233C36.4213 50.1611 37.8329 46.0973 37.8329 41.4329C37.8329 39.9752 37.5399 38.4094 36.9536 36.7334C38.8602 36.2958 40.3245 35.8954 41.3512 35.5312V24.2681C36.7316 26.0174 32.6633 26.894 29.1444 26.894C26.0647 25.145 22.7288 24.2685 19.136 24.2685ZM46.7444 24.8149C46.8908 26.1266 46.9643 28.4968 46.9643 31.9217V65.9229C46.9643 69.4216 46.8908 71.8976 46.7444 73.3546H59.171C59.0242 71.6786 58.9511 68.9814 58.9511 65.2642V31.703C58.9511 28.4963 59.0242 26.1995 59.171 24.8148L46.7444 24.8149ZM19.5758 34.3262C21.7755 34.3262 23.4968 35.167 24.7433 36.843C25.7695 38.3741 26.2825 40.1939 26.2825 42.3075C26.2825 47.4092 24.0483 49.9607 19.5758 49.9607C14.9572 49.9607 12.6464 47.4457 12.6464 42.4166C12.6464 37.0237 14.9572 34.3262 19.5758 34.3262ZM20.3454 78.8224C26.5046 78.8224 29.584 80.6791 29.584 84.396C29.584 88.3319 26.7609 90.3006 21.1154 90.3006C14.6636 90.3006 11.4374 88.4039 11.4374 84.6143C11.4374 80.7514 14.4066 78.8224 20.3454 78.8224Z" fill="#0147B7" fill-opacity="0.21"/>
</svg>
