<svg width="80" height="91" viewBox="0 0 80 91" fill="none" xmlns="http://www.w3.org/2000/svg">
<path fill-rule="evenodd" clip-rule="evenodd" d="M37.2098 15.8442C38.6444 16.2807 40.1717 16.3043 41.6189 15.9124L65.4375 58.2807C64.3347 59.3498 63.5599 60.7147 63.2047 62.2136H15.8461C15.465 60.6399 14.626 59.2164 13.4364 58.1253L37.2061 15.8442H37.2098ZM33.7421 13.7034C33.8099 13.7792 33.8852 13.8512 33.9567 13.9232L10.1343 56.3028C10.022 56.2726 9.909 56.2448 9.79545 56.2195V34.6716C10.8785 34.4278 11.8993 33.9595 12.7926 33.2967C13.6859 32.6339 14.4322 31.7911 14.9839 30.822C15.5333 29.8584 15.8803 28.7915 16.0034 27.6874C16.1264 26.5834 16.0229 25.4656 15.6993 24.4035L33.7421 13.7072V13.7034ZM47.1838 10.5396C47.5654 9.33397 47.6605 8.05502 47.4615 6.80563C47.2624 5.55625 46.7748 4.37131 46.0377 3.34614C45.3007 2.32097 44.3348 1.48418 43.2179 0.903085C42.1009 0.321985 40.864 0.0127966 39.6067 0.00038881C38.3493 -0.0120189 37.1067 0.272701 35.9786 0.831646C34.8505 1.39059 33.8685 2.20816 33.1117 3.21859C32.3548 4.22901 31.8441 5.4041 31.6208 6.64931C31.3974 7.89453 31.4676 9.17512 31.8256 10.3881L13.7715 21.0957C12.9051 20.2015 11.8444 19.5218 10.6728 19.11C9.50117 18.6981 8.25059 18.5654 7.01938 18.7222C5.78816 18.879 4.60987 19.3211 3.57716 20.0136C2.54444 20.7062 1.68545 21.6304 1.06773 22.7136C0.450777 23.7981 0.0905342 25.0112 0.0149729 26.2585C-0.0605884 27.5058 0.150565 28.7539 0.632036 29.9058C1.11351 31.0577 1.85234 32.0825 2.79116 32.9004C3.72998 33.7184 4.84352 34.3076 6.04531 34.6223V56.2763C4.84614 56.5941 3.73569 57.1853 2.79989 58.0041C1.86409 58.8229 1.12802 59.8474 0.648644 60.9983C0.169267 62.1491 -0.040572 63.3956 0.0353626 64.6411C0.111297 65.8867 0.47097 67.098 1.08655 68.1813C1.70343 69.2618 2.56058 70.1839 3.59085 70.8754C4.62111 71.5668 5.79649 72.0087 7.02488 72.1665C8.25326 72.3244 9.50128 72.1938 10.6711 71.785C11.841 71.3763 12.9009 70.7004 13.7677 69.8105L31.8218 80.5182C31.606 81.2629 31.497 82.0348 31.498 82.8105C31.5018 87.2928 35.0863 90.9151 39.5292 90.9151C40.8146 90.9123 42.0807 90.5997 43.2215 90.0035C44.3624 89.4074 45.3447 88.545 46.0864 87.4884C46.8281 86.4319 47.3076 85.212 47.4848 83.9308C47.662 82.6496 47.5316 81.3443 47.1048 80.1241L64.9932 69.515C65.8364 70.474 66.8944 71.2171 68.0798 71.6828C69.2651 72.1485 70.5436 72.3235 71.8095 72.1931C73.0753 72.0628 74.2921 71.6309 75.3592 70.9332C76.4262 70.2356 77.3127 69.2922 77.9455 68.1813C78.5798 67.0802 78.9474 65.8443 79.0185 64.5736C79.0896 63.3029 78.8621 62.0332 78.3546 60.8675C77.8471 59.7018 77.0738 58.6727 76.0973 57.8639C75.1209 57.055 73.9688 56.4891 72.7344 56.2119V34.6905C73.9698 34.4129 75.1232 33.8473 76.1016 33.0391C77.08 32.2309 77.8562 31.2028 78.3676 30.0376C78.8789 28.8723 79.1112 27.6025 79.0458 26.3304C78.9803 25.0583 78.6189 23.8194 77.9906 22.7136C77.3654 21.6211 76.4948 20.6909 75.4484 19.9975C74.4021 19.304 73.209 18.8665 71.9647 18.72C70.7203 18.5735 69.4591 18.7219 68.2819 19.1535C67.1048 19.5851 66.0443 20.2879 65.1852 21.2056L47.1876 10.5358L47.1838 10.5396ZM44.9285 14.0899L45.2109 13.8171L63.3139 24.5513C63.0188 25.5943 62.9344 26.6862 63.0656 27.7626C63.1969 28.839 63.5412 29.878 64.0783 30.8182C64.6044 31.7464 65.3094 32.5596 66.1518 33.2102C66.9942 33.8609 67.9572 34.3358 68.9843 34.6072V56.2801C68.8858 56.3072 68.7879 56.3363 68.6906 56.3672L44.9285 14.0899V14.0899ZM63.3591 66.5975L45.3841 77.2596C44.635 76.4528 43.729 75.8097 42.7224 75.3704C41.7158 74.9311 40.6302 74.7049 39.533 74.7059C37.2512 74.7059 35.1955 75.6607 33.7346 77.199L15.7181 66.5141C15.7633 66.3663 15.8047 66.2186 15.8386 66.067H63.2123C63.2574 66.2451 63.3064 66.4232 63.3629 66.5975H63.3591Z" fill="#0147B7" fill-opacity="0.5"/>
</svg>
