<svg width="150" height="147" viewBox="0 0 150 147" fill="none" xmlns="http://www.w3.org/2000/svg">
<path fill-rule="evenodd" clip-rule="evenodd" d="M0 0H149.808V146.063H0V0ZM114.522 122.45C107.575 122.45 103.649 118.92 100.634 114.112L89.1921 120.593C93.3243 128.554 101.77 134.628 114.847 134.628C128.217 134.628 138.173 127.86 138.173 115.499C138.173 104.039 131.419 98.9455 119.46 93.9368L115.939 92.4701C109.897 89.914 107.281 88.2525 107.281 84.1323C107.281 80.8033 109.903 78.2533 114.023 78.2533C118.061 78.2533 120.664 79.9147 123.08 84.1323L134.041 77.2734C129.403 69.3191 122.974 66.2822 114.023 66.2822C101.451 66.2822 93.4054 74.1209 93.4054 84.4184C93.4054 95.5861 100.147 100.875 110.309 105.092L113.829 106.565C120.252 109.304 124.079 110.971 124.079 115.676C124.079 119.607 120.352 122.45 114.522 122.45V122.45ZM59.967 122.358C55.1294 122.358 53.1133 119.133 50.9036 115.299L39.4433 122.066C42.764 128.919 49.2932 134.603 60.56 134.603C73.0378 134.603 81.5831 128.134 81.5831 113.923V67.0612H67.5073V113.741C67.5073 120.599 64.5861 122.358 59.9608 122.358H59.967Z" fill="#0147B7"/>
</svg>
