<svg width="87" height="87" viewBox="0 0 87 87" fill="none" xmlns="http://www.w3.org/2000/svg">
<path d="M43.4811 0C67.3958 0 86.9623 19.5665 86.9623 43.4811C86.9623 67.3958 67.3958 86.9623 43.4811 86.9623C19.5665 86.9623 0 67.3958 0 43.4811C0 19.5665 19.5665 0 43.4811 0ZM34.7849 57.8843C35.3284 60.3301 35.3284 62.5041 34.7849 64.4064L34.5131 65.2217C34.5131 65.4935 34.2414 65.7652 34.2414 65.7652C33.6979 66.8522 33.1544 67.6675 32.3391 68.7545C29.8933 71.4721 26.3604 72.5591 24.7299 71.7439C23.0994 70.9286 23.9146 66.8522 26.904 63.8629C30.165 60.6018 34.5131 58.4278 34.5131 58.4278L34.7849 57.8843ZM70.6568 18.4795C68.7545 10.8703 55.982 8.15271 43.7529 12.5008C36.6872 15.2184 28.8063 19.2948 23.0994 24.4581C16.3054 30.7085 15.4902 36.1437 15.7619 38.3177C17.3925 46.1987 28.2627 51.6338 32.8826 55.4384C31.5238 55.982 21.7406 60.8736 19.5665 66.037C17.1207 71.4721 19.8383 75.2767 21.7406 75.5485C27.4475 77.179 33.4261 74.1897 36.4154 69.5698C39.4048 64.9499 39.133 59.243 37.7742 56.2537C39.8883 55.6009 42.1354 55.5072 44.2964 55.982C51.9056 56.7972 53.5361 61.6889 52.9926 63.5912C52.4491 65.4935 51.0903 66.5805 50.5468 67.124C50.0033 67.3958 49.7315 67.6675 50.0033 67.6675C50.0033 67.9393 50.2751 67.9393 50.8186 67.9393C51.3621 67.9393 54.8949 66.3087 54.8949 62.5041C55.1667 57.8843 50.5468 52.7209 42.6659 52.7209C39.4048 52.7209 37.2307 52.9926 35.8719 53.5361C35.8719 53.2644 35.6002 53.2644 35.6002 53.2644C30.7085 48.101 21.7406 44.2964 22.0123 37.2307C22.0123 34.7849 23.0993 27.991 39.4048 19.8383C52.7209 13.0443 63.5912 14.9466 65.4935 19.023C68.211 24.7299 59.7866 35.6002 45.9269 37.2307C40.4918 37.7742 37.7742 35.8719 37.2307 35.0567C36.4154 34.2414 36.4154 34.2414 36.1437 34.2414C35.6002 34.5131 35.8719 35.0567 36.1437 35.6002C36.6872 36.6872 38.3177 38.5895 41.3071 39.6765C43.7529 40.4918 50.0033 41.0353 57.6125 38.046C66.037 34.7849 72.5591 25.8169 70.6568 18.2077V18.4795Z" fill="#0147B7" fill-opacity="0.5"/>
</svg>
